<svg width="158" height="37" viewBox="0 0 158 37" fill="none" xmlns="http://www.w3.org/2000/svg">
<path d="M135.782 19.7583C135.958 19.7583 136.094 19.8415 136.189 20.0078C136.298 20.1742 136.352 20.4029 136.352 20.6941C136.352 21.2347 136.223 21.6645 135.965 21.9834C135.314 22.7874 134.656 23.4113 133.991 23.8549C133.326 24.2847 132.539 24.4996 131.63 24.4996C130.748 24.4996 129.995 24.257 129.37 23.7718C128.76 23.2865 128.176 22.4547 127.62 21.2763C127.172 20.3336 126.819 19.6405 126.561 19.1968C126.304 18.7393 126.046 18.4135 125.788 18.2194C125.544 18.0253 125.238 17.9075 124.872 17.8659C124.818 18.1571 124.662 19.072 124.404 20.6109C124.295 21.3041 124.227 21.7269 124.2 21.8794C124.065 22.7251 123.793 23.3766 123.386 23.8341C122.979 24.2778 122.362 24.4996 121.534 24.4996C120.625 24.4996 119.817 24.2292 119.111 23.6886C118.42 23.134 117.884 22.3715 117.504 21.4011C117.123 20.4168 116.934 19.3008 116.934 18.0531C116.934 15.724 117.327 13.7138 118.114 12.0225C118.915 10.3311 120.028 9.04186 121.452 8.1546C122.891 7.25346 124.546 6.80292 126.419 6.80292C127.722 6.80292 128.814 7.00394 129.696 7.40598C130.578 7.80802 131.23 8.36253 131.65 9.06959C132.084 9.77662 132.301 10.5737 132.301 11.461C132.301 12.2374 132.118 12.9998 131.752 13.7485C131.399 14.4833 130.863 15.1348 130.144 15.7032C129.425 16.2716 128.55 16.6945 127.518 16.9717C128.17 17.152 128.671 17.4431 129.024 17.8451C129.377 18.2472 129.73 18.8364 130.083 19.6127C130.463 20.4445 130.836 21.0545 131.202 21.4427C131.582 21.8309 132.016 22.025 132.505 22.025C132.939 22.025 133.353 21.8794 133.747 21.5882C134.14 21.2833 134.636 20.7703 135.233 20.0494C135.395 19.8553 135.579 19.7583 135.782 19.7583ZM122.063 17.8451C121.602 17.8451 121.283 17.7342 121.106 17.5124C120.943 17.2906 120.862 17.0411 120.862 16.7638C120.862 16.431 120.964 16.1677 121.167 15.9735C121.385 15.7795 121.629 15.6824 121.9 15.6824H122.409C122.626 14.3238 122.83 13.1524 123.02 12.168C123.196 11.2669 123.766 10.8164 124.729 10.8164C125.503 10.8164 125.89 11.1699 125.89 11.8769C125.89 12.0294 125.883 12.1473 125.87 12.2305L125.259 15.6824C125.991 15.6408 126.656 15.4606 127.253 15.1418C127.864 14.8229 128.346 14.3793 128.699 13.8109C129.065 13.2425 129.248 12.5978 129.248 11.8769C129.248 11.0035 128.957 10.3173 128.373 9.81821C127.789 9.31912 126.935 9.06959 125.808 9.06959C124.479 9.06959 123.311 9.40922 122.307 10.0886C121.317 10.754 120.543 11.7521 119.987 13.083C119.431 14.4001 119.152 16.0082 119.152 17.9075C119.152 18.7948 119.24 19.5573 119.417 20.195C119.593 20.8327 119.81 21.311 120.068 21.6298C120.326 21.9487 120.57 22.1081 120.801 22.1081C120.978 22.1081 121.12 22.018 121.229 21.8378C121.35 21.6576 121.446 21.3664 121.514 20.9644L122.063 17.8451ZM144.684 18.0115C144.861 18.0115 144.997 18.1016 145.091 18.2818C145.187 18.4621 145.234 18.6908 145.234 18.9681C145.234 19.6335 145.037 20.0286 144.644 20.1534C143.829 20.4445 142.934 20.6109 141.957 20.6525C141.699 21.817 141.19 22.7528 140.43 23.4598C139.67 24.153 138.809 24.4996 137.845 24.4996C137.031 24.4996 136.332 24.2985 135.749 23.8965C135.179 23.4945 134.745 22.9607 134.446 22.2953C134.147 21.6298 133.998 20.9089 133.998 20.1326C133.998 19.079 134.195 18.1432 134.589 17.3253C134.982 16.4935 135.525 15.8488 136.217 15.3913C136.909 14.9199 137.675 14.6843 138.517 14.6843C139.548 14.6843 140.376 15.0516 141 15.7864C141.638 16.5073 142.011 17.4015 142.12 18.469C142.758 18.4274 143.517 18.2888 144.399 18.0531C144.508 18.0253 144.603 18.0115 144.684 18.0115ZM138.008 22.2953C138.442 22.2953 138.816 22.1151 139.128 21.7546C139.453 21.3942 139.67 20.8743 139.779 20.195C139.358 19.9038 139.033 19.5226 138.802 19.0513C138.585 18.5799 138.476 18.0808 138.476 17.554C138.476 17.3322 138.496 17.1104 138.537 16.8885H138.436C137.893 16.8885 137.438 17.1589 137.072 17.6996C136.719 18.2264 136.542 18.975 136.542 19.9454C136.542 20.7079 136.685 21.2902 136.97 21.6922C137.269 22.0943 137.614 22.2953 138.008 22.2953ZM151.201 19.7583C151.378 19.7583 151.514 19.8415 151.608 20.0078C151.717 20.1742 151.772 20.4029 151.772 20.6941C151.772 21.2486 151.643 21.6784 151.385 21.9834C150.801 22.7181 150.163 23.3212 149.471 23.7925C148.793 24.2639 148.019 24.4996 147.151 24.4996C145.957 24.4996 145.068 23.9451 144.485 22.836C143.915 21.7269 143.63 20.292 143.63 18.5314C143.63 16.84 143.84 14.913 144.26 12.7503C144.695 10.5876 145.326 8.72993 146.154 7.17723C146.995 5.62453 147.992 4.84818 149.146 4.84818C149.797 4.84818 150.306 5.16008 150.672 5.78395C151.052 6.39393 151.242 7.27428 151.242 8.42494C151.242 10.0747 150.795 11.9878 149.899 14.1644C149.003 16.3409 147.789 18.4967 146.255 20.6317C146.35 21.2001 146.506 21.6091 146.724 21.8586C146.94 22.0943 147.225 22.2121 147.578 22.2121C148.135 22.2121 148.623 22.0527 149.044 21.7338C149.464 21.4011 150.001 20.8396 150.652 20.0494C150.815 19.8553 150.998 19.7583 151.201 19.7583ZM148.698 6.90688C148.386 6.90688 148.033 7.48221 147.639 8.63287C147.246 9.78353 146.9 11.2115 146.601 12.9167C146.303 14.6219 146.14 16.2578 146.113 17.8243C147.076 16.2023 147.843 14.5803 148.413 12.9583C148.983 11.3224 149.268 9.83208 149.268 8.48731C149.268 7.43371 149.078 6.90688 148.698 6.90688ZM156.009 21.4635C156.158 21.3248 156.307 21.2555 156.457 21.2555C156.619 21.2555 156.748 21.3526 156.843 21.5467C156.952 21.7269 157.006 21.9487 157.006 22.2121C157.006 22.7944 156.803 23.2588 156.395 23.6054C155.69 24.2015 154.889 24.4996 153.994 24.4996C152.704 24.4996 151.761 23.952 151.164 22.8568C150.567 21.7477 150.269 20.3059 150.269 18.5314C150.269 16.84 150.479 14.913 150.9 12.7503C151.334 10.5876 151.965 8.72993 152.793 7.17723C153.634 5.62453 154.632 4.84818 155.785 4.84818C156.436 4.84818 156.945 5.16008 157.312 5.78395C157.691 6.39393 157.881 7.27428 157.881 8.42494C157.881 10.0747 157.434 11.9878 156.538 14.1644C155.656 16.3409 154.448 18.4898 152.915 20.6109C153.01 21.1793 153.179 21.5882 153.424 21.8378C153.668 22.0873 154 22.2121 154.421 22.2121C154.652 22.2121 154.91 22.1428 155.195 22.0041C155.493 21.8655 155.765 21.6853 156.009 21.4635ZM155.337 6.90688C155.025 6.90688 154.672 7.48221 154.279 8.63287C153.885 9.78353 153.539 11.2115 153.241 12.9167C152.942 14.6219 152.779 16.2578 152.752 17.8243C153.715 16.2023 154.482 14.5803 155.052 12.9583C155.622 11.3224 155.907 9.83208 155.907 8.48731C155.907 7.43371 155.717 6.90688 155.337 6.90688Z" fill="#C4364E"/>
<path d="M36.375 7.15604H44.1978C46.9105 7.15604 49.1742 8.15138 50.989 10.1421C52.8038 12.1132 53.7112 14.5333 53.7112 17.4022C53.7112 20.2516 52.8038 22.6814 50.989 24.6916C49.1742 26.6628 46.9105 27.6484 44.1978 27.6484H36.375V7.15604ZM39.0399 25.0722H44.1978C46.2418 25.0722 47.9134 24.3403 49.2124 22.8766C50.5114 21.3933 51.1609 19.5685 51.1609 17.4022C51.1609 15.2359 50.5114 13.4111 49.2124 11.9278C47.9134 10.4641 46.2418 9.73222 44.1978 9.73222H39.0399V25.0722ZM66.7106 20.7688V13.011H69.2036V27.6484H66.7106V25.5406C65.7172 27.1995 64.1699 28.0289 62.0685 28.0289C60.3874 28.0289 59.0406 27.4922 58.0282 26.4188C57.0157 25.3259 56.5095 23.8524 56.5095 21.9983V13.011H59.0024V21.852C59.0024 23.0229 59.3176 23.9402 59.948 24.6038C60.5785 25.2673 61.4477 25.5991 62.5556 25.5991C63.8356 25.5991 64.848 25.199 65.5931 24.3989C66.3381 23.5792 66.7106 22.3691 66.7106 20.7688ZM75.4921 13.011V15.4701C76.3136 13.655 77.8036 12.7475 79.9623 12.7475V15.4115C78.7397 15.353 77.689 15.6847 76.8103 16.4069C75.9315 17.129 75.4921 18.2902 75.4921 19.8905V27.6484H72.9992V13.011H75.4921ZM93.4811 15.5286V13.011H95.974V27.6484H93.4811V25.1307C92.2585 27.0629 90.4532 28.0289 88.0653 28.0289C86.0403 28.0289 84.3306 27.2873 82.9361 25.804C81.5224 24.3013 80.8156 22.4765 80.8156 20.3297C80.8156 18.2024 81.5224 16.3873 82.9361 14.8846C84.3497 13.3818 86.0594 12.6304 88.0653 12.6304C90.4532 12.6304 92.2585 13.5965 93.4811 15.5286ZM88.3805 25.5698C89.8323 25.5698 91.0454 25.0722 92.0197 24.0768C92.9939 23.0425 93.4811 21.7934 93.4811 20.3297C93.4811 18.8464 92.9939 17.6071 92.0197 16.6118C91.0454 15.5969 89.8323 15.0895 88.3805 15.0895C86.9477 15.0895 85.7442 15.5969 84.77 16.6118C83.7957 17.6071 83.3086 18.8464 83.3086 20.3297C83.3086 21.7934 83.7957 23.0425 84.77 24.0768C85.7442 25.0722 86.9477 25.5698 88.3805 25.5698ZM104.795 20.0955L111.872 27.6484H108.778L102.244 20.7102V27.6484H99.7513V7.15604H102.244V19.4807L108.434 13.011H111.643L104.795 20.0955Z" fill="white"/>
<path d="M2.48347 1.62637C1.11135 1.62637 0 2.76311 0 4.16657V29.5685C0 30.9719 1.11135 32.1087 2.48347 32.1087H19.8677C21.2399 32.1087 22.3512 30.9719 22.3512 29.5685V4.16657C22.3512 2.76311 21.2399 1.62637 19.8677 1.62637H2.48347ZM24.5339 2.48716C24.7165 3.01552 24.8347 3.5747 24.8347 4.16657V29.5685C24.8347 30.9694 24.2774 32.2409 23.3771 33.1605L24.2963 33.3093C25.651 33.5278 26.9238 32.5815 27.1387 31.1958L31.0118 6.10642C31.2266 4.72075 30.3026 3.41756 28.9479 3.19911L24.5339 2.48716ZM11.1756 7.97683C11.4314 7.97683 11.6573 8.07413 11.8547 8.21001L11.9129 8.2249C14.117 10.0602 18.626 14.608 18.626 17.5026C18.626 19.9577 16.6802 21.9479 14.2799 21.9479C13.2779 21.9479 12.3679 21.5858 11.634 21.0028C12.2722 22.7441 13.2785 23.8164 14.5128 24.5327V24.5352C14.74 24.6292 14.9008 24.8564 14.9008 25.1231C14.9008 25.4737 14.6226 25.7582 14.2799 25.7582H11.1756H8.07125C7.72855 25.7582 7.4504 25.4737 7.4504 25.1231C7.4504 24.8564 7.61122 24.6292 7.83843 24.5352V24.5327C9.07274 23.8177 10.079 22.7441 10.7172 21.0028C9.98337 21.5858 9.07334 21.9479 8.07125 21.9479C5.67101 21.9479 3.7252 19.9577 3.7252 17.5026C3.7252 14.608 8.23423 10.0602 10.4383 8.2249L10.4965 8.21001C10.694 8.07413 10.9198 7.97683 11.1756 7.97683Z" fill="white"/>
</svg>
