<svg width="13" height="13" viewBox="0 0 13 13" fill="none" xmlns="http://www.w3.org/2000/svg">
<path d="M1.26976 8.27179L2.35309 10.146C2.42502 10.2703 2.54337 10.3609 2.68212 10.398C2.82087 10.4351 2.96867 10.4155 3.09301 10.3437L3.84918 9.90708C4.16334 10.1546 4.51055 10.3577 4.87564 10.5094V11.375C4.87564 11.5187 4.9327 11.6564 5.03429 11.758C5.13587 11.8596 5.27364 11.9167 5.4173 11.9167H7.58397C7.72763 11.9167 7.8654 11.8596 7.96699 11.758C8.06857 11.6564 8.12564 11.5187 8.12564 11.375V10.5094C8.49358 10.3562 8.83891 10.1536 9.1521 9.90708L9.90826 10.3437C10.1666 10.4926 10.4992 10.4032 10.6482 10.146L11.7315 8.27179C11.8028 8.14731 11.822 7.99971 11.785 7.86112C11.748 7.72254 11.6577 7.6042 11.5338 7.53187L10.7906 7.10233C10.8487 6.70285 10.8483 6.29704 10.7896 5.89766L11.5327 5.46812C11.7906 5.31916 11.8799 4.98604 11.7304 4.7282L10.6471 2.85404C10.5752 2.72972 10.4568 2.63906 10.3181 2.60199C10.1793 2.56491 10.0315 2.58446 9.90718 2.65633L9.15101 3.09291C8.83822 2.84612 8.49303 2.64345 8.1251 2.49058V1.62499C8.1251 1.48134 8.06803 1.34356 7.96644 1.24198C7.86486 1.1404 7.72709 1.08333 7.58343 1.08333H5.41676C5.2731 1.08333 5.13533 1.1404 5.03375 1.24198C4.93216 1.34356 4.87509 1.48134 4.87509 1.62499V2.49058C4.50715 2.64377 4.16182 2.84641 3.84864 3.09291L3.09301 2.65633C3.03146 2.62067 2.96348 2.5975 2.89297 2.58813C2.82245 2.57877 2.75078 2.58341 2.68206 2.60177C2.61334 2.62013 2.54891 2.65186 2.49246 2.69515C2.43601 2.73844 2.38866 2.79243 2.35309 2.85404L1.26976 4.7282C1.19847 4.85268 1.17925 5.00028 1.21628 5.13887C1.25331 5.27745 1.34359 5.39579 1.46747 5.46812L2.21064 5.89766C2.15221 6.29709 2.15221 6.7029 2.21064 7.10233L1.46747 7.53187C1.20964 7.68083 1.12026 8.01395 1.26976 8.27179ZM6.5001 4.33333C7.69501 4.33333 8.66676 5.30508 8.66676 6.5C8.66676 7.69491 7.69501 8.66666 6.5001 8.66666C5.30518 8.66666 4.33343 7.69491 4.33343 6.5C4.33343 5.30508 5.30518 4.33333 6.5001 4.33333Z" fill="#575757"/>
</svg>
